<?xml version="1.0" encoding="utf-8"?>
<!-- Generator: Adobe Illustrator 27.5.0, SVG Export Plug-In . SVG Version: 6.00 Build 0)  -->
<svg version="1.1" id="Слой_1" xmlns="http://www.w3.org/2000/svg" xmlns:xlink="http://www.w3.org/1999/xlink" x="0px" y="0px"
	 viewBox="0 0 3200 2000" style="enable-background:new 0 0 3200 2000;" xml:space="preserve">
<rect style="fill:#FFFFFF;" width="3200" height="2000"/>
<g>
	<path style="fill:#EBF3FA;" d="M417.726,1799.271c0,0-336.326-405.138-171.956-822.225
		C352.91,705.18,754.808,556.211,981.62,705.18c96.603,63.448,406.526,2.14,572.008-260.541
		c321.57-510.451,1443.861-200.446,1239.543,583.273c-98.875,379.264,300.918,393.05,97.208,772.162L417.726,1799.271z"/>
	<g>
		<g>
			<path style="fill:#C8DBF4;" d="M666.681,1132.491c0,0-33.92-39.572-2.092-64.708c0,0,23.249-14.074,42.206-12.932
				c0,0-26.861,45.042-18.171,49.522c8.69,4.48,26.313-52.349,26.313-52.349s52.906-5.13,69.925,3.053
				c0,0-45.228,37.012-35.703,39.215s58.377-34.124,58.377-34.124s49.24,8.379,46.615,38.417s-19.592,39.313-27.049,38.516
				c-7.458-0.799-51.079-17.451-52.029-11.341s25.308,26.078,43.695,27.013c0,0-34.715,38.285-57.788,27.235
				c-23.072-11.049-25.042-28.563-39.424-35.133c-14.382-6.569-26.659-6.553-20.722,0.147c5.938,6.699,31.967,13.211,40.192,27.759
				c8.225,14.549,15.604,24.361-8.267,20.77s-62.672-21.059-64.375-41.06C666.681,1132.491,666.681,1132.491,666.681,1132.491z"/>
			<g>
				<path style="fill:#C8DBF4;" d="M829.956,1099.396c0,0-133.741-5.153-163.275,33.095c0,0-6.532,19.563-26.632,37.376
					l-3.133,8.539c0,0,23.175-24.436,31.468-25.914C668.384,1152.492,655.415,1105.106,829.956,1099.396z"/>
				<path style="fill:#C8DBF4;" d="M640.049,1169.867c0,0-28.706,21.23-30.7,59.163l5.21,0.466c0,0,9.168-39.223,25.74-54.561
					S640.049,1169.867,640.049,1169.867z"/>
			</g>
		</g>
		<g>
			<path style="fill:#C8DBF4;" d="M548.086,1082.725c0,0,53.958-30.216,28.777-71.224c0,0-20.144-25.18-41.727-31.655
				c0,0,11.511,61.152,0,62.59c-11.511,1.438-7.914-69.065-7.914-69.065s-56.835-27.338-79.138-25.18
				c0,0,35.252,59.713,23.741,58.274c-11.511-1.438-51.08-61.871-51.08-61.871s-58.274-10.792-67.627,23.741
				c-9.353,34.533,5.755,51.799,14.389,53.958c8.633,2.158,64.03,1.438,62.591,8.633c-1.439,7.194-38.85,18.705-59.713,12.23
				c0,0,23.022,56.835,53.238,53.957c30.216-2.877,39.569-21.583,58.274-23.021c18.705-1.438,32.375,3.597,23.022,8.633
				c-9.353,5.036-41.007,1.65-56.116,14.495c-15.108,12.844-27.338,20.758,0.72,26.513c28.058,5.756,78.418,2.158,88.49-19.425
				C548.086,1082.725,548.086,1082.725,548.086,1082.725z"/>
			<g>
				<path style="fill:#C8DBF4;" d="M379.739,979.127c0,0,151.081,48.921,168.347,103.598c0,0-0.719,24.461,14.389,52.52v10.791
					c0,0-15.827-36.691-24.46-41.728C538.014,1104.308,571.827,1056.825,379.739,979.127z"/>
				<path style="fill:#C8DBF4;" d="M562.475,1135.244c0,0,23.299,35.381,10.017,78.449l-5.994-1.61c0,0,5.818-47.438-6.372-71.296
					C547.935,1116.929,562.475,1135.244,562.475,1135.244z"/>
			</g>
		</g>
		<g>
			<path style="fill:#D4E4F8;" d="M633.928,1041.053c0,0-71.126-39.83-37.934-93.886c0,0,26.554-33.192,55.004-41.727
				c0,0-15.174,80.61,0,82.506c15.173,1.896,10.432-91.041,10.432-91.041s74.919-36.038,104.318-33.192
				c0,0-46.469,78.713-31.295,76.816c15.173-1.896,67.333-81.558,67.333-81.558s76.816-14.225,89.145,31.295
				c12.329,45.52-7.586,68.281-18.967,71.126c-11.38,2.845-84.403,1.896-82.506,11.38c1.896,9.484,51.211,24.657,78.713,16.122
				c0,0-30.347,74.92-70.178,71.126c-39.831-3.793-52.159-28.45-76.816-30.347c-24.657-1.897-42.676,4.741-30.347,11.38
				c12.329,6.639,54.056,2.176,73.971,19.106c19.915,16.931,36.037,27.362-0.949,34.949c-36.985,7.587-103.37,2.845-116.646-25.605
				C633.928,1041.053,633.928,1041.053,633.928,1041.053z"/>
			<g>
				<path style="fill:#D4E4F8;" d="M855.841,904.491c0,0-199.153,64.488-221.913,136.562c0,0,0.948,32.244-18.967,69.229v14.226
					c0,0,20.863-48.366,32.244-55.005C647.205,1069.503,602.633,1006.912,855.841,904.491z"/>
				<path style="fill:#D4E4F8;" d="M614.961,1110.282c0,0-30.713,46.639-13.204,103.411l7.901-2.123c0,0-7.67-62.531,8.398-93.98
					C634.126,1086.14,614.961,1110.282,614.961,1110.282z"/>
			</g>
		</g>
		<path style="fill:#D4E4F8;" d="M631.532,1336.807c76.947,0,139.325-62.378,139.325-139.325H492.207
			C492.207,1274.429,554.585,1336.807,631.532,1336.807z"/>
		<path style="fill:#D4E4F8;" d="M772.78,1343.896H490.283v-0.001c0-9.493,7.696-17.188,17.189-17.188h248.119
			C765.084,1326.707,772.78,1334.402,772.78,1343.896L772.78,1343.896z"/>
		<rect x="487.626" y="1197.481" style="fill:#9FC1F4;" width="286.398" height="4.273"/>
	</g>
	<g>
		<g>
			<path style="fill:#8CB4F4;" d="M1350.451,1796.374l0.689-0.013c5.629-0.104,9.977-4.705,9.447-9.998l-37.555-375.068
				l-32.771,2.924l53.927,377.086C1344.608,1794.251,1347.303,1796.432,1350.451,1796.374z"/>
		</g>
		<g>
			<path style="fill:#8CB4F4;" d="M988.825,1796.374l-0.689-0.013c-5.629-0.104-9.977-4.705-9.447-9.998l37.556-375.068
				l32.771,2.924l-53.927,377.086C994.668,1794.251,991.974,1796.432,988.825,1796.374z"/>
		</g>
		<g>
			<path style="fill:#8CB4F4;" d="M1615.401,1796.374l0.689-0.013c5.629-0.104,9.977-4.705,9.446-9.998l-37.555-375.068
				l-32.771,2.924l53.927,377.086C1609.559,1794.251,1612.253,1796.432,1615.401,1796.374z"/>
		</g>
		<path style="fill:#8CB4F4;" d="M1000.01,1356.736l-66.664-329.205c-8.557-44.572,28.377-85.329,76.334-84.233l128.565,2.936
			c44.352,1.013,82.915,30.697,95.241,73.313l97.532,337.189H1000.01z"/>
		<path style="fill:#8CB4F4;" d="M1040.34,1356.736l-66.663-329.205c-8.557-44.572,28.377-85.329,76.334-84.233l128.565,2.936
			c44.352,1.013,82.914,30.697,95.241,73.313l97.532,337.189H1040.34z"/>
		<path style="fill:#8CB4F4;" d="M1018.59,1416.778h508.658c10.219,0,18.581-8.361,18.581-18.581v-22.88
			c0-10.22-8.361-18.581-18.581-18.581H1000.01v41.461C1000.01,1408.417,1008.371,1416.778,1018.59,1416.778z"/>
		<path style="fill:#8CB4F4;" d="M1257.29,1416.778h324.258c8.232,0,14.968-6.735,14.968-14.968v-30.106
			c0-8.232-6.735-14.968-14.968-14.968H1257.29c-8.232,0-14.968,6.735-14.968,14.968v30.106
			C1242.322,1410.043,1249.057,1416.778,1257.29,1416.778z"/>
	</g>
	<g>
		<path style="fill:#9ABFE2;" d="M848.238,1352.449v11.23c0,3.933-1.273,7.144-2.827,7.144H435.555
			c-1.553,0-2.826-3.211-2.826-7.144v-11.23c0-3.926,1.273-7.144,2.826-7.144h409.856
			C846.965,1345.306,848.238,1348.523,848.238,1352.449z"/>
		<path style="fill:#BAD4F4;" d="M848.238,1352.449v11.23c0,3.933-1.169,7.144-2.594,7.144H520.263
			c-1.426,0-2.594-3.211-2.594-7.144v-11.23c0-3.926,1.168-7.144,2.594-7.144h325.381
			C847.07,1345.306,848.238,1348.523,848.238,1352.449z"/>
		<rect x="453.531" y="1370.826" style="fill:#C8DBF4;" width="290.973" height="424.106"/>
		<rect x="535.073" y="1370.826" style="fill:#DFEBFD;" width="290.973" height="424.106"/>
		<g>
			<g>
				<path style="fill:#B7D3F3;" d="M810.414,1771.518H550.712v-388.711h259.702V1771.518z M553.516,1768.713h254.093v-383.102
					H553.516V1768.713z"/>
			</g>
			<g>
				<rect x="552.114" y="1511.396" style="fill:#B7D3F3;" width="256.897" height="2.804"/>
			</g>
			<g>
				<rect x="552.114" y="1642.489" style="fill:#B7D3F3;" width="256.897" height="2.805"/>
			</g>
			<path style="fill:#B7D3F3;" d="M706.887,1407.876h-47.671c-2.313,0-4.206-1.894-4.206-4.207l0,0c0-2.313,1.893-4.206,4.206-4.206
				h47.671c2.314,0,4.206,1.893,4.206,4.206l0,0C711.093,1405.982,709.2,1407.876,706.887,1407.876z"/>
			<path style="fill:#B7D3F3;" d="M706.887,1536.072h-47.671c-2.313,0-4.206-1.893-4.206-4.206l0,0c0-2.313,1.893-4.207,4.206-4.207
				h47.671c2.314,0,4.206,1.894,4.206,4.207l0,0C711.093,1534.18,709.2,1536.072,706.887,1536.072z"/>
			<path style="fill:#B7D3F3;" d="M706.887,1669.708h-47.671c-2.313,0-4.206-1.893-4.206-4.206l0,0c0-2.313,1.893-4.206,4.206-4.206
				h47.671c2.314,0,4.206,1.893,4.206,4.206l0,0C711.093,1667.815,709.2,1669.708,706.887,1669.708z"/>
		</g>
	</g>
	<g>
		<path style="fill:#C0D8FB;" d="M1990.512,608.279h-184.435c-8.467,0-15.394-6.928-15.394-15.394V414.874
			c0-8.467,6.927-15.394,15.394-15.394h184.435c8.467,0,15.395,6.927,15.395,15.394v178.011
			C2005.906,601.352,1998.979,608.279,1990.512,608.279z"/>
		<path style="fill:#DFEBFD;" d="M1982.521,599.233h-168.454c-7.733,0-14.061-6.327-14.061-14.06V422.585
			c0-7.733,6.327-14.06,14.061-14.06h168.454c7.733,0,14.061,6.327,14.061,14.06v162.588
			C1996.582,592.906,1990.255,599.233,1982.521,599.233z"/>
		<g>
			<g>
				<circle style="fill:#B7D3F3;" cx="1898.295" cy="427.582" r="4.458"/>
				<path style="fill:#B7D3F3;" d="M1929.811,433.883c1.196-2.152,3.91-2.927,6.063-1.731c2.152,1.196,2.928,3.911,1.731,6.063
					c-1.196,2.152-3.91,2.928-6.063,1.731C1929.39,438.75,1928.614,436.035,1929.811,433.883z"/>
				<path style="fill:#B7D3F3;" d="M1960.631,458.368c2.068-1.335,4.828-0.739,6.163,1.33c1.334,2.069,0.739,4.829-1.33,6.163
					c-2.068,1.335-4.828,0.739-6.163-1.33C1957.966,462.462,1958.562,459.703,1960.631,458.368z"/>
				<path style="fill:#B7D3F3;" d="M1975.896,496.267c2.462,0,4.458,1.996,4.458,4.458c0,2.462-1.996,4.458-4.458,4.458
					c-2.463,0-4.459-1.996-4.459-4.458C1971.438,498.263,1973.434,496.267,1975.896,496.267z"/>
				<path style="fill:#B7D3F3;" d="M1968.102,540.248c1.741,1.741,1.741,4.564,0,6.305c-1.741,1.741-4.563,1.741-6.305,0
					c-1.741-1.741-1.741-4.563,0-6.305C1963.538,538.507,1966.36,538.507,1968.102,540.248z"/>
				<path style="fill:#B7D3F3;" d="M1940.105,568.317c1.742,1.741,1.742,4.564,0,6.305c-1.74,1.741-4.563,1.741-6.305,0
					c-1.741-1.741-1.741-4.564,0-6.305C1935.542,566.576,1938.365,566.576,1940.105,568.317z"/>
				<path style="fill:#B7D3F3;" d="M1893.837,582.785c0-2.462,1.995-4.459,4.458-4.459c2.462,0,4.458,1.996,4.458,4.459
					c0,2.462-1.996,4.458-4.458,4.458C1895.832,587.243,1893.837,585.247,1893.837,582.785z"/>
			</g>
			<g>
				<path style="fill:#B7D3F3;" d="M1866.637,433.883c-1.195-2.152-3.91-2.927-6.063-1.731c-2.152,1.196-2.927,3.911-1.731,6.063
					c1.196,2.152,3.911,2.928,6.063,1.731C1867.058,438.75,1867.833,436.035,1866.637,433.883z"/>
				<path style="fill:#B7D3F3;" d="M1835.817,458.368c-2.069-1.335-4.829-0.739-6.163,1.33c-1.335,2.069-0.74,4.829,1.329,6.163
					c2.069,1.335,4.829,0.739,6.163-1.33C1838.481,462.462,1837.887,459.703,1835.817,458.368z"/>
				<path style="fill:#B7D3F3;" d="M1820.552,496.267c-2.463,0-4.459,1.996-4.459,4.458c0,2.462,1.996,4.458,4.459,4.458
					c2.462,0,4.458-1.996,4.458-4.458C1825.01,498.263,1823.014,496.267,1820.552,496.267z"/>
				<path style="fill:#B7D3F3;" d="M1828.346,540.248c-1.741,1.741-1.741,4.564,0,6.305c1.741,1.741,4.564,1.741,6.305,0
					c1.742-1.741,1.742-4.563,0-6.305C1832.91,538.507,1830.087,538.507,1828.346,540.248z"/>
				<path style="fill:#B7D3F3;" d="M1856.342,568.317c-1.741,1.741-1.741,4.564,0,6.305c1.741,1.741,4.563,1.741,6.305,0
					c1.741-1.741,1.741-4.564,0-6.305C1860.905,566.576,1858.083,566.576,1856.342,568.317z"/>
			</g>
		</g>
		<g>
			<path style="fill:#B7D3F3;" d="M1897.093,500.725c0-2.462,1.996-4.458,4.458-4.458c2.463,0,4.459,1.996,4.459,4.458
				c0,2.462-1.996,4.458-4.459,4.458C1899.089,505.183,1897.093,503.187,1897.093,500.725z"/>
			<g>
				<rect x="1900.942" y="445.029" style="fill:#B7D3F3;" width="1.218" height="55.695"/>
			</g>
			<g>
				
					<rect x="1896.984" y="487.231" transform="matrix(0.7866 -0.6175 0.6175 0.7866 106.8564 1287.2916)" style="fill:#B7D3F3;" width="37.538" height="3.652"/>
			</g>
		</g>
	</g>
	<g>
		<g>
			<path style="fill:#233862;" d="M1443.13,1287.843c-27.518,47.894-62.129,66.381-62.129,66.381h-143.99
				C1237.011,1354.224,1464.123,1251.306,1443.13,1287.843z"/>
			<g>
				<path style="fill:#FFB27D;" d="M1620.725,1763.662c-1.557,15.107,19.457,19.01,43.826,20.486
					c24.371,1.476,16.948,6.391,50.299,12.801c33.35,6.41,46.839-2.59,49.306-7.08c2.197-3.981-13.271-10.413-29.751-17.671
					c-2.075-0.906-4.151-1.84-6.228-2.774c-18.546-8.393-28.822-25.217-43.184-40.866c-13.604-14.823-26.165-61.952-26.165-61.952
					l-45.305-10.185c0,0,12.296,42.428,16.529,60.53c2.489,10.647-1.479,22.479-4.986,31.479
					C1623.176,1753.326,1621.267,1758.339,1620.725,1763.662z"/>
				<path style="fill:#0F2549;" d="M1664.551,1784.148c24.371,1.476,16.948,6.391,50.299,12.801c33.35,6.41,46.839-2.59,49.306-7.08
					c2.197-3.981-13.271-10.413-29.751-17.671l-0.262,0.279c0,0-23.581,7.726-50.621,0.062
					c-22.041-6.239-43.272-19.678-58.455-24.109c-1.891,4.896-3.8,9.909-4.342,15.232
					C1619.168,1778.77,1640.182,1782.672,1664.551,1784.148z"/>
				<path style="fill:#233862;" d="M1552.085,1238.783c-24.378-17.118-185.636-47.635-267.93-56.461l-90.958-78.958
					c0,0-77.422,114.674-78.036,202.401c-0.286,40.905,18.555,44.968,18.559,44.977c0,0,291.585,2.163,304.367,3.481
					c20.921,2.157,48.518,54.275,55.415,101.746c6.896,47.471,128.486,240.542,128.486,240.542s25.357,8.125,37.084,7.437
					c12.611-0.74,18.449-4.965,18.449-4.965S1607.063,1277.388,1552.085,1238.783z"/>
				<path style="fill:#FFB27D;" d="M1545.304,1763.662c-1.557,15.107,19.456,19.01,43.826,20.486
					c24.371,1.476,16.948,6.391,50.297,12.801c33.351,6.41,46.84-2.59,49.307-7.08c2.197-3.981-13.271-10.413-29.752-17.671
					c-2.074-0.906-4.15-1.84-6.227-2.774c-18.546-8.393-28.822-25.217-43.184-40.866c-13.604-14.823-26.165-61.952-26.165-61.952
					l-45.305-10.185c0,0,12.297,42.428,16.53,60.53c2.489,10.647-1.479,22.479-4.986,31.479
					C1547.755,1753.326,1545.846,1758.339,1545.304,1763.662z"/>
				<path style="fill:#233862;" d="M1589.13,1784.148c24.371,1.476,16.948,6.391,50.297,12.801c33.351,6.41,46.84-2.59,49.307-7.08
					c2.197-3.981-13.271-10.413-29.752-17.671l-0.261,0.279c0,0-23.581,7.726-50.621,0.062
					c-22.041-6.239-43.272-19.678-58.455-24.109c-1.891,4.896-3.799,9.909-4.341,15.232
					C1543.747,1778.77,1564.76,1782.672,1589.13,1784.148z"/>
				<path style="fill:#2B478B;" d="M1475.997,1238.783c-21.179-14.871-84.876-26.4-155.19-34.958
					c-19.441-2.365-35.402-16.5-40.15-35.5l0,0l-163.548-64.961c0,0-77.422,114.674-78.036,202.401
					c-0.286,40.905,18.555,44.968,18.559,44.977c0,0,291.585,2.163,304.367,3.481c20.921,2.157,48.518,54.275,55.415,101.746
					c6.896,47.471,128.487,240.542,128.487,240.542s25.356,8.125,37.083,7.437c12.611-0.74,18.449-4.965,18.449-4.965
					S1530.974,1277.388,1475.997,1238.783z"/>
				<path style="fill:#233862;" d="M1257.149,626.916c-22.475-11.802-56.671-13.398-62.227-14.145
					c-66.481-8.935-106.494,87.669-108.848,116.941c-4.337,53.954-32.879,62.18-73.054,95.969
					c-80.554,67.752-56.932,146.481-12.884,175.733c26.428,17.552,73.011-0.003,73.011-0.003
					c0.659,0.461,127.398-70.85,189.873-105.249C1356.678,882.849,1314.42,656.99,1257.149,626.916z"/>
				<path style="fill:#FFB27D;" d="M1243.284,862.93c0.291,0.149-29.54,13.717-51.075,6.602
					c-20.258-6.675-38.102-37.175-37.815-37.22c8.793-1.275,17.731-9.948,20.226-61.349l3.894,0.98l65.468,16.547
					c0,0-2.59,20.74-3.657,40.35C1239.421,845.305,1239.605,860.975,1243.284,862.93z"/>
				<path style="fill:#ED975D;" d="M1243.981,788.491c0,0,0,4.268-2.447,23.563c-37.026-9.339-53.353-21.617-64.866-35.669
					L1243.981,788.491z"/>
				<path style="fill:#FFB27D;" d="M1257.948,791.102c0,0-86.574,14.096-94.521-39.953c-7.948-54.049-24.475-88.63,30.464-99.915
					c54.939-11.285,68.736,7.756,75.776,25.152C1276.708,693.781,1280.263,786.043,1257.948,791.102z"/>
				<path style="fill:#233862;" d="M1258.031,648.97c0,0-39.315,62.06-74.412,76.758c-35.097,14.698-52.34,7.236-52.34,7.236
					s15.967-24.21,20.127-56.717c1.226-9.582,7.469-17.797,16.437-21.389C1193.029,644.771,1241.748,628.865,1258.031,648.97z"/>
				<path style="fill:#233862;" d="M1223.496,654.969c0,0,23.044,11.814,32.534,22.886c9.158,10.685,19.735,39.677,18.98,52.697
					c0,0,11.367-62.397-12.31-83.846C1237.595,623.962,1223.496,654.969,1223.496,654.969z"/>
				<path style="fill:#FFFFFF;" d="M1312.544,994.972c-2.628,175.976-0.722,139.203-19.971,155.901
					c-4.639,4.02-17.678,6.416-34.84,7.55c-53.959,3.582-148.814-5.308-152.422-15.28c-12.446-34.505-3.659-45.225-14.044-98.051
					c-1.083-5.617-2.422-11.699-3.994-18.321c-8.658-36.283-17.085-48.626,13.632-106.915c27.856-52.8,60.614-95.693,63.216-94.147
					c73.493,43.626,76.009,7.057,76.009,7.057S1313.832,909.136,1312.544,994.972z"/>
				<path style="fill:#FFFFFF;" d="M1240.13,832.766c0,0,75.216,12.75,84.096,45.31c8.88,32.559,61.136,223.968,61.136,223.968
					s-38.443,6.906-56.203-10.854s-61.796-164.769-61.796-164.769L1240.13,832.766z"/>
				<path style="fill:#EBF3FF;" d="M1257.733,1158.423c-53.959,3.582-148.814-5.308-152.422-15.28
					c-12.446-34.505-3.659-45.225-14.044-98.051l26.026-73.286c0,0-4.303,81.609,19.765,103.075
					c24.042,21.465,98.54,41.436,110.239,59.371C1252.94,1142.859,1256.651,1151.491,1257.733,1158.423z"/>
				<path style="fill:#FFB27D;" d="M1195.909,1124.099c0,0,53.235-11.854,61.825-7.129c8.59,4.725,29.583,21.93,32.211,27.916
					c2.629,5.987-19.123-4.545-26.198-6.442c-4.582-1.229-16.643,2.963-22.613,4.953c-25.125,8.375-40.52,4.066-40.52,4.066
					L1195.909,1124.099z"/>
				<path style="fill:#FFFFFF;" d="M1164.121,825.709c0,0-75.344,4.403-100.089,38.916
					c-34.833,48.582-103.932,255.631-64.331,283.244c44.598,31.098,202.974,8.136,202.974,8.136s5.271-24.635-2.063-36.551
					c-7.333-11.917-126.498-31.167-131.998-36.666c-5.5-5.5,68.749-107.248,68.749-123.748
					C1137.364,942.54,1164.121,825.709,1164.121,825.709z"/>
				<path style="fill:#FFB27D;" d="M1260.311,1131.787c0,0,11.154,14.388,14.811,16.105s6.019,1.288,6.019,1.288l-7.516-13.528
					L1260.311,1131.787z"/>
				<path style="fill:#FFB27D;" d="M1257.733,1116.97l32.43,15.748c0,0-1.379,2.258-5.373,2.075
					c-3.993-0.182-14.065-3.865-14.065-3.865L1257.733,1116.97z"/>
			</g>
		</g>
	</g>
	<g>
		<path style="fill:#ED7D2B;" d="M1377.197,1154.304H1226.58l0,0c0-6.631,5.375-12.007,12.006-12.007h138.611V1154.304z"/>
		<polygon style="fill:#ED7D2B;" points="1376.765,990.267 1609.63,990.267 1553.774,1154.304 1319.399,1154.304 		"/>
		<polygon style="fill:#F99746;" points="1613.059,990.264 1557.204,1154.303 1322.827,1154.303 1380.195,990.264 		"/>
		<path style="fill:#FFFFFF;" d="M1487.512,1070.768c-1.447,6.268-7.701,11.349-13.968,11.349s-10.175-5.081-8.728-11.349
			c1.447-6.267,7.701-11.348,13.968-11.348S1488.959,1064.501,1487.512,1070.768z"/>
	</g>
	<g>
		<path style="fill:#182D4F;" d="M1174.52,1191.208h1020.488c4.291,0,7.771-3.479,7.771-7.771v-21.363
			c0-4.292-3.479-7.771-7.771-7.771H1174.52c-4.292,0-7.771,3.479-7.771,7.771v21.363
			C1166.749,1187.729,1170.228,1191.208,1174.52,1191.208z"/>
		<g>
			<path style="fill:#182D4F;" d="M2219.993,1799.119l0.438-0.054c5.228-0.646,8.93-5.312,8.269-10.421l-90.938-615.564
				l-33.292,0.954l106.995,618.893C2212.15,1796.892,2215.912,1799.623,2219.993,1799.119z"/>
		</g>
		<g>
			<path style="fill:#182D4F;" d="M1140.347,1799.119l-0.438-0.054c-5.227-0.646-8.93-5.312-8.269-10.421l90.938-615.564
				l33.292,0.954l-106.996,618.893C1148.189,1796.892,1144.428,1799.623,1140.347,1799.119z"/>
		</g>
		<g>
			<path style="fill:#182D4F;" d="M1350.872,1799.119l-0.438-0.054c-5.227-0.646-8.93-5.312-8.269-10.421l90.938-615.564
				l33.292,0.954L1359.4,1792.927C1358.714,1796.892,1354.953,1799.623,1350.872,1799.119z"/>
		</g>
	</g>
	<path style="fill:#2E3552;" d="M3030.658,1804.19H204.386c-2.125,0-3.864-1.738-3.864-3.864v-3.157
		c0-2.125,1.739-3.864,3.864-3.864h2826.272c2.125,0,3.864,1.739,3.864,3.864v3.157
		C3034.522,1802.452,3032.783,1804.19,3030.658,1804.19z"/>
	<g>
		<path style="fill:#233862;" d="M1887.372,1798.621h180.455c8.679-10.592,5.481-49.675,4.168-62.436
			c-0.271-2.569-0.457-4.068-0.457-4.068s-61.622-49.289-70.087-11.548c-0.257,1.185-0.57,2.341-0.913,3.483
			c-10.663,35.3-58.496,51.344-86.116,55.812C1896.465,1782.776,1889.827,1792.111,1887.372,1798.621z"/>
		<path style="fill:#233862;" d="M2379.767,1212.259c-6.515,0-309.109,56.814-359.161,118.771
			c-25.004,30.951-28.721,388.408-28.721,388.408s30.935,38.354,97.743,16.084c0,0,48.984-244.565,45.367-318.744
			c-1.001-20.512,206.747-2.969,244.771-12.81s130.929-92.557,110.458-132.854
			C2469.754,1230.817,2379.767,1212.259,2379.767,1212.259z"/>
		<path style="fill:#FFB27D;" d="M2021.904,1124.727c0,0-61.038,0.824-75.473,7.011s-43.717,20.387-35.881,22.566
			c7.836,2.179,45.228-0.898,53.306,0.339c8.079,1.237,18.044-0.341,22.993-0.34c4.948,0.001,28.033,0,28.033,0L2021.904,1124.727z"
			/>
		<path style="fill:#FFB27D;" d="M1950.541,978.248c0,0-20.811-14.871-41.019-17.758c-11.525-1.647-22.731-3.7-29.505-6.086
			c-18.647-6.571-55.955-40.117-53.132-44.053c9.048-12.611,52.606,14.077,60.208,11.212c7.602-2.865-14.613-18.661-6.886-24.217
			c4.036-2.901,13.477,11.642,21.194,13.102c10.44,1.976,18.604,16.72,21.745,17.489c6.118,1.498,32.916,21.428,32.916,21.428
			L1950.541,978.248z"/>
		<path style="fill:#ED7D2B;" d="M2349.627,804.589c0,0-46.462,14.4-92.24,140.461c-45.779,126.061-63.163,132.866-79.804,137.815
			s-162.7,34.025-162.7,34.025v37.412h225.055c0,0,84.39-80.275,109.689-134.317
			C2374.927,965.944,2349.627,804.589,2349.627,804.589z"/>
		<path style="fill:#1B3051;" d="M1807.619,1798.621h180.454c8.679-10.592,5.481-49.675,4.168-62.436
			c-0.271-2.569-0.456-4.068-0.456-4.068s-61.622-49.289-70.087-11.548c-0.257,1.185-0.571,2.341-0.913,3.483
			c-10.663,35.3-58.496,51.344-86.117,55.812C1816.711,1782.776,1810.074,1792.111,1807.619,1798.621z"/>
		<path style="fill:#2B478B;" d="M2290.598,1212.259c-6.516,0-309.11,56.814-359.162,118.771
			c-25.004,30.951-28.721,388.408-28.721,388.408s30.936,38.354,97.744,16.084c0,0,48.984-244.565,45.366-318.744
			c-1.001-20.512,206.748-2.969,244.772-12.81c38.023-9.841,130.929-92.557,110.457-132.854
			C2380.584,1230.817,2290.598,1212.259,2290.598,1212.259z"/>
		<path style="fill:#FFB27D;" d="M2309.535,844.54c21.768-1.797,44.591-7.599,64.317-14c24.657-8.001,44.534-19.695,31.726-42.233
			c-11.804-20.771-30.908-67.172-29.618-105.611l-45.884,36.977l-31.168,25.114c0,0,0.129,14.806,3.535,40.755
			c0.623,4.73,1.352,9.836,2.211,15.293c0.693,4.408-1.332,8.811-5.125,11.163c-0.235,0.146-0.47,0.292-0.703,0.439
			C2283.336,822.169,2291.303,846.045,2309.535,844.54z"/>
		<path style="fill:#ED975D;" d="M2298.908,738.675c0,0-1.595,5.376,1.146,25.228c27.786-4.533,53.763-26.696,53.763-26.696
			c-14.146-3.884-19.294-19.17-29.831-17.745L2298.908,738.675z"/>
		<path style="fill:#FFB27D;" d="M2273.206,743.202c0,0,106.885,17.757,116.919-48.975c10.033-66.733,30.586-109.384-37.233-123.543
			c-67.818-14.159-84.937,9.307-93.704,30.767C2250.422,622.91,2245.662,736.863,2273.206,743.202z"/>
		<path style="fill:#2B478B;" d="M2243.469,571.919c-4.591,16.069,7.693,35.643,28.313,42.086
			c30.608,9.565,23.845,47.11,37.619,46.6c13.773-0.51,19.33-21.581,31.632-4.746c10.494,14.359-8.734,31.384-7.411,39.258
			c2.271,13.519,23.447,41.178,42.53,39.791c19.084-1.388,54.794-92.081,47.651-120.138c-7.142-28.058-35.71-57.646-62.747-61.727
			c-27.037-4.081-64.586,7.593-73.258,7.593S2245.949,563.239,2243.469,571.919z"/>
		<path style="fill:#F99746;" d="M2491.649,897.206c-15.448-62.179-58.147-127.423-87.018-127.368
			c-49.196,0.094-119.917,13.075-148.472,83.515c-21.03,51.88-49.083,350.308-17.379,371.532
			c72.473,48.52,240.463,147.562,270.304,46.559C2536.428,1178.897,2518.461,1005.124,2491.649,897.206z"/>
		<path style="fill:#F99746;" d="M2372.161,835.331c-14.034-36.508-59.302-49.129-90.172-25.112
			c-16.696,12.99-37.144,31.488-61.841,57.788c-91.809,97.767-110.468,97.159-127.711,95.14
			c-17.243-2.019-162.924-32.938-162.924-32.938s-7.461,5.502-11.851,14.398c-5.863,11.881-2.912,19.978-2.912,19.978
			c-5.706-3.688,51.64,35.841,80.185,51.604c37.696,20.814,94.498,40.328,117.12,47.738c6.413,2.101,13.328,1.995,19.677-0.293
			c33.578-12.104,146.345-56.207,238.142-132.735C2394.061,910.734,2385.174,869.181,2372.161,835.331z"/>
		<path style="fill:#FFFFFF;" d="M2409.584,770.436l-11.139-25.092c0,0-99.699,8.13-116.456,64.874
			C2281.989,810.218,2359.272,771.653,2409.584,770.436z"/>
	</g>
	<g>
		<g>
			<path style="fill:#8CB4F4;" d="M2651.639,1796.374l0.688-0.013c5.629-0.104,9.978-4.705,9.447-9.998l-37.556-375.068
				l-32.771,2.924l53.927,377.086C2645.796,1794.251,2648.49,1796.432,2651.639,1796.374z"/>
		</g>
		<g>
			<path style="fill:#8CB4F4;" d="M2458.333,1796.374l0.688-0.013c5.63-0.104,9.978-4.705,9.447-9.998l-37.555-375.068
				l-32.771,2.924l53.926,377.086C2452.49,1794.251,2455.185,1796.432,2458.333,1796.374z"/>
		</g>
		<g>
			<path style="fill:#73A2E5;" d="M2095.433,1796.374l-0.688-0.013c-5.629-0.104-9.978-4.705-9.447-9.998l37.556-375.068
				l32.771,2.924l-53.926,377.086C2101.275,1794.251,2098.581,1796.432,2095.433,1796.374z"/>
		</g>
		<path style="fill:#8CB4F4;" d="M2641.025,1358.161l35.645-313.262c4.674-45.145-10.434-89.347-75.578-92.768l-114.606-6.981
			c-67.927-2.803-98.595,53.731-107.194,97.253l-68.037,344.354L2641.025,1358.161z"/>
		<path style="fill:#73A2E5;" d="M2621.873,1416.778h-508.657c-10.22,0-18.581-8.361-18.581-18.581v-22.88
			c0-10.22,8.361-18.581,18.581-18.581h527.238v41.461C2640.454,1408.417,2632.093,1416.778,2621.873,1416.778z"/>
		<path style="fill:#8CB4F4;" d="M2626.023,1416.778h-300.34c-7.936,0-14.43-6.494-14.43-14.431v-31.182
			c0-7.937,6.494-14.43,14.43-14.43h314.771v45.611C2640.454,1410.284,2633.961,1416.778,2626.023,1416.778z"/>
	</g>
</g>
</svg>
